<mxfile host="app.diagrams.net" modified="2023-06-20T09:12:33.914Z" agent="Mozilla/5.0 (Windows NT 10.0; Win64; x64) AppleWebKit/537.36 (KHTML, like Gecko) Chrome/114.0.0.0 Safari/537.36" etag="QxPzUwmWc5KCBBbkIPh6" version="21.4.0" type="device">
  <diagram name="Страница 1" id="LizwMYsRRLEpFXI96ynP">
    <mxGraphModel dx="1290" dy="530" grid="1" gridSize="10" guides="1" tooltips="1" connect="1" arrows="1" fold="1" page="1" pageScale="1" pageWidth="827" pageHeight="1169" math="0" shadow="0">
      <root>
        <mxCell id="0" />
        <mxCell id="1" parent="0" />
        <mxCell id="pGjU86A07lwYCL6OK8Nk-15" style="edgeStyle=orthogonalEdgeStyle;rounded=0;orthogonalLoop=1;jettySize=auto;html=1;exitX=0.5;exitY=1;exitDx=0;exitDy=0;entryX=0.5;entryY=0;entryDx=0;entryDy=0;fontFamily=Helvetica;fontSize=12;fontColor=default;fillColor=#FFC380;" edge="1" parent="1" source="pGjU86A07lwYCL6OK8Nk-1" target="pGjU86A07lwYCL6OK8Nk-4">
          <mxGeometry relative="1" as="geometry" />
        </mxCell>
        <mxCell id="pGjU86A07lwYCL6OK8Nk-1" value="Begin" style="rounded=1;whiteSpace=wrap;html=1;fillColor=#FFC380;" vertex="1" parent="1">
          <mxGeometry x="320" y="40" width="80" height="20" as="geometry" />
        </mxCell>
        <mxCell id="pGjU86A07lwYCL6OK8Nk-11" value="no" style="edgeStyle=orthogonalEdgeStyle;rounded=0;orthogonalLoop=1;jettySize=auto;html=1;exitX=0;exitY=0.5;exitDx=0;exitDy=0;entryX=0.5;entryY=0;entryDx=0;entryDy=0;fontFamily=Helvetica;fontSize=12;fontColor=default;fillColor=#FFC380;" edge="1" parent="1" source="pGjU86A07lwYCL6OK8Nk-3" target="pGjU86A07lwYCL6OK8Nk-10">
          <mxGeometry relative="1" as="geometry" />
        </mxCell>
        <mxCell id="pGjU86A07lwYCL6OK8Nk-19" value="yes" style="edgeStyle=orthogonalEdgeStyle;rounded=0;orthogonalLoop=1;jettySize=auto;html=1;exitX=1;exitY=0.5;exitDx=0;exitDy=0;entryX=0.5;entryY=0;entryDx=0;entryDy=0;fontFamily=Helvetica;fontSize=12;fontColor=default;fillColor=#FFC380;" edge="1" parent="1" source="pGjU86A07lwYCL6OK8Nk-3" target="pGjU86A07lwYCL6OK8Nk-18">
          <mxGeometry relative="1" as="geometry" />
        </mxCell>
        <mxCell id="pGjU86A07lwYCL6OK8Nk-3" value="array[i].Length &amp;lt;= 3" style="rhombus;whiteSpace=wrap;html=1;fillColor=#FFC380;" vertex="1" parent="1">
          <mxGeometry x="109" y="280" width="140" height="60" as="geometry" />
        </mxCell>
        <mxCell id="pGjU86A07lwYCL6OK8Nk-14" style="edgeStyle=orthogonalEdgeStyle;rounded=0;orthogonalLoop=1;jettySize=auto;html=1;exitX=0.5;exitY=1;exitDx=0;exitDy=0;entryX=0.5;entryY=0;entryDx=0;entryDy=0;fontFamily=Helvetica;fontSize=12;fontColor=default;fillColor=#FFC380;" edge="1" parent="1" source="pGjU86A07lwYCL6OK8Nk-4" target="pGjU86A07lwYCL6OK8Nk-9">
          <mxGeometry relative="1" as="geometry" />
        </mxCell>
        <mxCell id="pGjU86A07lwYCL6OK8Nk-4" value="array_size, &lt;br&gt;string[array_size] array" style="shape=parallelogram;perimeter=parallelogramPerimeter;whiteSpace=wrap;html=1;fixedSize=1;fillColor=#FFC380;" vertex="1" parent="1">
          <mxGeometry x="275" y="80" width="170" height="30" as="geometry" />
        </mxCell>
        <mxCell id="pGjU86A07lwYCL6OK8Nk-62" style="edgeStyle=orthogonalEdgeStyle;rounded=0;orthogonalLoop=1;jettySize=auto;html=1;entryX=0.5;entryY=0;entryDx=0;entryDy=0;fontFamily=Helvetica;fontSize=12;fontColor=default;fillColor=#FFC380;" edge="1" parent="1" source="pGjU86A07lwYCL6OK8Nk-5" target="pGjU86A07lwYCL6OK8Nk-61">
          <mxGeometry relative="1" as="geometry" />
        </mxCell>
        <mxCell id="pGjU86A07lwYCL6OK8Nk-5" value="string[] mod_array" style="shape=document;whiteSpace=wrap;html=1;boundedLbl=1;fillColor=#FFC380;" vertex="1" parent="1">
          <mxGeometry x="300" y="450" width="120" height="70" as="geometry" />
        </mxCell>
        <mxCell id="pGjU86A07lwYCL6OK8Nk-24" style="edgeStyle=orthogonalEdgeStyle;rounded=0;orthogonalLoop=1;jettySize=auto;html=1;exitX=0.5;exitY=1;exitDx=0;exitDy=0;entryX=0.5;entryY=0;entryDx=0;entryDy=0;fontFamily=Helvetica;fontSize=12;fontColor=default;fillColor=#FFC380;" edge="1" parent="1" source="pGjU86A07lwYCL6OK8Nk-9" target="pGjU86A07lwYCL6OK8Nk-23">
          <mxGeometry relative="1" as="geometry" />
        </mxCell>
        <mxCell id="pGjU86A07lwYCL6OK8Nk-9" value="int i = 0; &lt;br&gt;int mod_arr_size = 0;" style="rounded=0;whiteSpace=wrap;html=1;strokeColor=default;fontFamily=Helvetica;fontSize=12;fontColor=default;fillColor=#FFC380;" vertex="1" parent="1">
          <mxGeometry x="300" y="130" width="120" height="40" as="geometry" />
        </mxCell>
        <mxCell id="pGjU86A07lwYCL6OK8Nk-28" style="edgeStyle=orthogonalEdgeStyle;rounded=0;orthogonalLoop=1;jettySize=auto;html=1;exitX=0;exitY=0.5;exitDx=0;exitDy=0;entryX=0.5;entryY=0;entryDx=0;entryDy=0;fontFamily=Helvetica;fontSize=12;fontColor=default;fillColor=#FFC380;" edge="1" parent="1" source="pGjU86A07lwYCL6OK8Nk-10" target="pGjU86A07lwYCL6OK8Nk-23">
          <mxGeometry relative="1" as="geometry">
            <Array as="points">
              <mxPoint x="40" y="360" />
              <mxPoint x="40" y="190" />
              <mxPoint x="360" y="190" />
            </Array>
          </mxGeometry>
        </mxCell>
        <mxCell id="pGjU86A07lwYCL6OK8Nk-10" value="i++;" style="rounded=0;whiteSpace=wrap;html=1;strokeColor=default;fontFamily=Helvetica;fontSize=12;fontColor=default;fillColor=#FFC380;" vertex="1" parent="1">
          <mxGeometry x="59" y="350" width="60" height="20" as="geometry" />
        </mxCell>
        <mxCell id="pGjU86A07lwYCL6OK8Nk-21" style="edgeStyle=orthogonalEdgeStyle;rounded=0;orthogonalLoop=1;jettySize=auto;html=1;entryX=0.5;entryY=0;entryDx=0;entryDy=0;fontFamily=Helvetica;fontSize=12;fontColor=default;fillColor=#FFC380;" edge="1" parent="1" source="pGjU86A07lwYCL6OK8Nk-18" target="pGjU86A07lwYCL6OK8Nk-20">
          <mxGeometry relative="1" as="geometry" />
        </mxCell>
        <mxCell id="pGjU86A07lwYCL6OK8Nk-18" value="mod_arr_size++;" style="rounded=0;whiteSpace=wrap;html=1;strokeColor=default;fontFamily=Helvetica;fontSize=12;fontColor=default;fillColor=#FFC380;" vertex="1" parent="1">
          <mxGeometry x="229" y="350" width="110" height="20" as="geometry" />
        </mxCell>
        <mxCell id="pGjU86A07lwYCL6OK8Nk-27" style="edgeStyle=orthogonalEdgeStyle;rounded=0;orthogonalLoop=1;jettySize=auto;html=1;entryX=0.5;entryY=0;entryDx=0;entryDy=0;fontFamily=Helvetica;fontSize=12;fontColor=default;fillColor=#FFC380;" edge="1" parent="1" source="pGjU86A07lwYCL6OK8Nk-20" target="pGjU86A07lwYCL6OK8Nk-23">
          <mxGeometry relative="1" as="geometry">
            <Array as="points">
              <mxPoint x="40" y="399" />
              <mxPoint x="40" y="190" />
              <mxPoint x="360" y="190" />
            </Array>
          </mxGeometry>
        </mxCell>
        <mxCell id="pGjU86A07lwYCL6OK8Nk-20" value="i++;" style="rounded=0;whiteSpace=wrap;html=1;strokeColor=default;fontFamily=Helvetica;fontSize=12;fontColor=default;fillColor=#FFC380;" vertex="1" parent="1">
          <mxGeometry x="254" y="389" width="60" height="20" as="geometry" />
        </mxCell>
        <mxCell id="pGjU86A07lwYCL6OK8Nk-25" style="edgeStyle=orthogonalEdgeStyle;rounded=0;orthogonalLoop=1;jettySize=auto;html=1;exitX=0;exitY=0.5;exitDx=0;exitDy=0;entryX=0.5;entryY=0;entryDx=0;entryDy=0;fontFamily=Helvetica;fontSize=12;fontColor=default;fillColor=#FFC380;" edge="1" parent="1" source="pGjU86A07lwYCL6OK8Nk-23" target="pGjU86A07lwYCL6OK8Nk-3">
          <mxGeometry relative="1" as="geometry" />
        </mxCell>
        <mxCell id="pGjU86A07lwYCL6OK8Nk-26" value="no" style="edgeLabel;html=1;align=center;verticalAlign=middle;resizable=0;points=[];fontSize=12;fontFamily=Helvetica;fontColor=default;fillColor=#FFC380;" vertex="1" connectable="0" parent="pGjU86A07lwYCL6OK8Nk-25">
          <mxGeometry x="-0.496" relative="1" as="geometry">
            <mxPoint as="offset" />
          </mxGeometry>
        </mxCell>
        <mxCell id="pGjU86A07lwYCL6OK8Nk-30" value="yes" style="edgeStyle=orthogonalEdgeStyle;rounded=0;orthogonalLoop=1;jettySize=auto;html=1;exitX=1;exitY=0.5;exitDx=0;exitDy=0;entryX=0.5;entryY=0;entryDx=0;entryDy=0;fontFamily=Helvetica;fontSize=12;fontColor=default;fillColor=#FFC380;" edge="1" parent="1" source="pGjU86A07lwYCL6OK8Nk-23" target="pGjU86A07lwYCL6OK8Nk-29">
          <mxGeometry relative="1" as="geometry" />
        </mxCell>
        <mxCell id="pGjU86A07lwYCL6OK8Nk-23" value="i &amp;gt;= array_size" style="rhombus;whiteSpace=wrap;html=1;fillColor=#FFC380;" vertex="1" parent="1">
          <mxGeometry x="290" y="210" width="140" height="60" as="geometry" />
        </mxCell>
        <mxCell id="pGjU86A07lwYCL6OK8Nk-44" style="edgeStyle=orthogonalEdgeStyle;rounded=0;orthogonalLoop=1;jettySize=auto;html=1;exitX=0.5;exitY=1;exitDx=0;exitDy=0;entryX=0.5;entryY=0;entryDx=0;entryDy=0;fontFamily=Helvetica;fontSize=12;fontColor=default;fillColor=#FFC380;" edge="1" parent="1" source="pGjU86A07lwYCL6OK8Nk-29">
          <mxGeometry relative="1" as="geometry">
            <mxPoint x="520" y="360" as="targetPoint" />
          </mxGeometry>
        </mxCell>
        <mxCell id="pGjU86A07lwYCL6OK8Nk-29" value="i = 0; &lt;br&gt;int count = 0;&lt;br&gt;string[] mod_array = new string[mod_arr_size];" style="rounded=0;whiteSpace=wrap;html=1;strokeColor=default;fontFamily=Helvetica;fontSize=12;fontColor=default;fillColor=#FFC380;" vertex="1" parent="1">
          <mxGeometry x="440" y="260" width="160" height="70" as="geometry" />
        </mxCell>
        <mxCell id="pGjU86A07lwYCL6OK8Nk-53" value="yes" style="edgeStyle=orthogonalEdgeStyle;rounded=0;orthogonalLoop=1;jettySize=auto;html=1;exitX=1;exitY=0.5;exitDx=0;exitDy=0;entryX=0.5;entryY=0;entryDx=0;entryDy=0;fontFamily=Helvetica;fontSize=12;fontColor=default;fillColor=#FFC380;" edge="1" parent="1" source="pGjU86A07lwYCL6OK8Nk-45" target="pGjU86A07lwYCL6OK8Nk-48">
          <mxGeometry relative="1" as="geometry" />
        </mxCell>
        <mxCell id="pGjU86A07lwYCL6OK8Nk-59" style="edgeStyle=orthogonalEdgeStyle;rounded=0;orthogonalLoop=1;jettySize=auto;html=1;exitX=0;exitY=0.5;exitDx=0;exitDy=0;fontFamily=Helvetica;fontSize=12;fontColor=default;fillColor=#FFC380;" edge="1" parent="1" source="pGjU86A07lwYCL6OK8Nk-45">
          <mxGeometry relative="1" as="geometry">
            <mxPoint x="360" y="450" as="targetPoint" />
          </mxGeometry>
        </mxCell>
        <mxCell id="pGjU86A07lwYCL6OK8Nk-60" value="no" style="edgeLabel;html=1;align=center;verticalAlign=middle;resizable=0;points=[];fontSize=12;fontFamily=Helvetica;fontColor=default;fillColor=#FFC380;" vertex="1" connectable="0" parent="pGjU86A07lwYCL6OK8Nk-59">
          <mxGeometry x="-0.5505" y="1" relative="1" as="geometry">
            <mxPoint as="offset" />
          </mxGeometry>
        </mxCell>
        <mxCell id="pGjU86A07lwYCL6OK8Nk-45" value="i &amp;lt; array_size" style="rhombus;whiteSpace=wrap;html=1;fillColor=#FFC380;" vertex="1" parent="1">
          <mxGeometry x="450" y="360" width="140" height="60" as="geometry" />
        </mxCell>
        <mxCell id="pGjU86A07lwYCL6OK8Nk-46" value="no" style="edgeStyle=orthogonalEdgeStyle;rounded=0;orthogonalLoop=1;jettySize=auto;html=1;exitX=0;exitY=0.5;exitDx=0;exitDy=0;entryX=0.5;entryY=0;entryDx=0;entryDy=0;fontFamily=Helvetica;fontSize=12;fontColor=default;fillColor=#FFC380;" edge="1" parent="1" source="pGjU86A07lwYCL6OK8Nk-48" target="pGjU86A07lwYCL6OK8Nk-49">
          <mxGeometry relative="1" as="geometry" />
        </mxCell>
        <mxCell id="pGjU86A07lwYCL6OK8Nk-47" value="yes" style="edgeStyle=orthogonalEdgeStyle;rounded=0;orthogonalLoop=1;jettySize=auto;html=1;exitX=1;exitY=0.5;exitDx=0;exitDy=0;entryX=0.5;entryY=0;entryDx=0;entryDy=0;fontFamily=Helvetica;fontSize=12;fontColor=default;fillColor=#FFC380;" edge="1" parent="1" source="pGjU86A07lwYCL6OK8Nk-48" target="pGjU86A07lwYCL6OK8Nk-51">
          <mxGeometry relative="1" as="geometry" />
        </mxCell>
        <mxCell id="pGjU86A07lwYCL6OK8Nk-48" value="array[i].Length &amp;lt;= 3" style="rhombus;whiteSpace=wrap;html=1;fillColor=#FFC380;" vertex="1" parent="1">
          <mxGeometry x="550" y="420" width="140" height="60" as="geometry" />
        </mxCell>
        <mxCell id="pGjU86A07lwYCL6OK8Nk-57" style="edgeStyle=orthogonalEdgeStyle;rounded=0;orthogonalLoop=1;jettySize=auto;html=1;exitX=0.5;exitY=1;exitDx=0;exitDy=0;entryX=0.5;entryY=0;entryDx=0;entryDy=0;fontFamily=Helvetica;fontSize=12;fontColor=default;fillColor=#FFC380;" edge="1" parent="1" source="pGjU86A07lwYCL6OK8Nk-49" target="pGjU86A07lwYCL6OK8Nk-45">
          <mxGeometry relative="1" as="geometry">
            <Array as="points">
              <mxPoint x="530" y="630" />
              <mxPoint x="800" y="630" />
              <mxPoint x="800" y="340" />
              <mxPoint x="520" y="340" />
            </Array>
          </mxGeometry>
        </mxCell>
        <mxCell id="pGjU86A07lwYCL6OK8Nk-58" style="edgeStyle=orthogonalEdgeStyle;rounded=0;orthogonalLoop=1;jettySize=auto;html=1;exitX=0;exitY=0.5;exitDx=0;exitDy=0;fontFamily=Helvetica;fontSize=12;fontColor=default;fillColor=#FFC380;" edge="1" parent="1" source="pGjU86A07lwYCL6OK8Nk-49">
          <mxGeometry relative="1" as="geometry">
            <mxPoint x="530" y="510" as="targetPoint" />
          </mxGeometry>
        </mxCell>
        <mxCell id="pGjU86A07lwYCL6OK8Nk-49" value="i++;" style="rounded=0;whiteSpace=wrap;html=1;strokeColor=default;fontFamily=Helvetica;fontSize=12;fontColor=default;fillColor=#FFC380;" vertex="1" parent="1">
          <mxGeometry x="500" y="490" width="60" height="20" as="geometry" />
        </mxCell>
        <mxCell id="pGjU86A07lwYCL6OK8Nk-50" style="edgeStyle=orthogonalEdgeStyle;rounded=0;orthogonalLoop=1;jettySize=auto;html=1;entryX=0.5;entryY=0;entryDx=0;entryDy=0;fontFamily=Helvetica;fontSize=12;fontColor=default;fillColor=#FFC380;" edge="1" parent="1" source="pGjU86A07lwYCL6OK8Nk-51" target="pGjU86A07lwYCL6OK8Nk-52">
          <mxGeometry relative="1" as="geometry" />
        </mxCell>
        <mxCell id="pGjU86A07lwYCL6OK8Nk-51" value="mod_array[count] = = array[i];" style="rounded=0;whiteSpace=wrap;html=1;strokeColor=default;fontFamily=Helvetica;fontSize=12;fontColor=default;fillColor=#FFC380;" vertex="1" parent="1">
          <mxGeometry x="670" y="490" width="110" height="40" as="geometry" />
        </mxCell>
        <mxCell id="pGjU86A07lwYCL6OK8Nk-55" style="edgeStyle=orthogonalEdgeStyle;rounded=0;orthogonalLoop=1;jettySize=auto;html=1;exitX=0.5;exitY=1;exitDx=0;exitDy=0;entryX=0.5;entryY=0;entryDx=0;entryDy=0;fontFamily=Helvetica;fontSize=12;fontColor=default;fillColor=#FFC380;" edge="1" parent="1" source="pGjU86A07lwYCL6OK8Nk-52" target="pGjU86A07lwYCL6OK8Nk-54">
          <mxGeometry relative="1" as="geometry" />
        </mxCell>
        <mxCell id="pGjU86A07lwYCL6OK8Nk-52" value="count++;" style="rounded=0;whiteSpace=wrap;html=1;strokeColor=default;fontFamily=Helvetica;fontSize=12;fontColor=default;fillColor=#FFC380;" vertex="1" parent="1">
          <mxGeometry x="695" y="550" width="60" height="20" as="geometry" />
        </mxCell>
        <mxCell id="pGjU86A07lwYCL6OK8Nk-56" style="edgeStyle=orthogonalEdgeStyle;rounded=0;orthogonalLoop=1;jettySize=auto;html=1;exitX=1;exitY=0.5;exitDx=0;exitDy=0;entryX=0.5;entryY=0;entryDx=0;entryDy=0;fontFamily=Helvetica;fontSize=12;fontColor=default;fillColor=#FFC380;" edge="1" parent="1" source="pGjU86A07lwYCL6OK8Nk-54" target="pGjU86A07lwYCL6OK8Nk-45">
          <mxGeometry relative="1" as="geometry">
            <Array as="points">
              <mxPoint x="800" y="600" />
              <mxPoint x="800" y="340" />
              <mxPoint x="520" y="340" />
            </Array>
          </mxGeometry>
        </mxCell>
        <mxCell id="pGjU86A07lwYCL6OK8Nk-54" value="i++;" style="rounded=0;whiteSpace=wrap;html=1;strokeColor=default;fontFamily=Helvetica;fontSize=12;fontColor=default;fillColor=#FFC380;" vertex="1" parent="1">
          <mxGeometry x="695" y="590" width="60" height="20" as="geometry" />
        </mxCell>
        <mxCell id="pGjU86A07lwYCL6OK8Nk-61" value="End" style="rounded=1;whiteSpace=wrap;html=1;fillColor=#FFC380;" vertex="1" parent="1">
          <mxGeometry x="320" y="550" width="80" height="20" as="geometry" />
        </mxCell>
      </root>
    </mxGraphModel>
  </diagram>
</mxfile>
